HIERARCHY
ROOT Hips
{
  OFFSET -69.4423 88.0299 51.6846
  CHANNELS 6 Xposition Yposition Zposition Zrotation Xrotation Yrotation
  JOINT Spine
  {
    OFFSET 12.0259 -0.162853 1.93176e-005
    CHANNELS 3 Zrotation Xrotation Yrotation
    JOINT Spine1
    {
      OFFSET 15.3169 -0.0121909 0
      CHANNELS 3 Zrotation Xrotation Yrotation
      JOINT Spine2
      {
        OFFSET 15.3176 -0.0121922 0
        CHANNELS 3 Zrotation Xrotation Yrotation
        JOINT Neck
        {
          OFFSET 19.9142 1.56236 0
          CHANNELS 3 Zrotation Xrotation Yrotation
          JOINT Head
          {
            OFFSET 6.92646 0 0
            CHANNELS 3 Zrotation Xrotation Yrotation
            End Site
            {
              OFFSET 20.7666 0 0
            }
          }
          JOINT LeftShoulder
          {
            OFFSET -4.94072 -1.14703 8.14416
            CHANNELS 3 Zrotation Xrotation Yrotation
            JOINT LeftArm
            {
              OFFSET 14.108 0 -2.74767e-005
              CHANNELS 3 Zrotation Xrotation Yrotation
              JOINT LeftForeArm
              {
                OFFSET 28.5802 -0.0783412 -0.0284884
                CHANNELS 3 Zrotation Xrotation Yrotation
                JOINT LeftHand
                {
                  OFFSET 27.092 0 0
                  CHANNELS 3 Zrotation Xrotation Yrotation
                  End Site
                  {
                    OFFSET 9.55928 -0.186424 0.145352
                  }
                }
              }
            }
          }
          JOINT RightShoulder
          {
            OFFSET -7.15748 -1.33027 -6.24935
            CHANNELS 3 Zrotation Xrotation Yrotation
            JOINT RightArm
            {
              OFFSET 14.108 0 1.82997e-005
              CHANNELS 3 Zrotation Xrotation Yrotation
              JOINT RightForeArm
              {
                OFFSET 28.5802 -0.0707221 2.30684e-005
                CHANNELS 3 Zrotation Xrotation Yrotation
                JOINT RightHand
                {
                  OFFSET 27.092 0 -1.30073e-005
                  CHANNELS 3 Zrotation Xrotation Yrotation
                  End Site
                  {
                    OFFSET 9.55929 -0.186417 -0.145354
                  }
                }
              }
            }
          }
        }
      }
    }
  }
  JOINT LeftUpLeg
  {
    OFFSET 0.00499725 -0.534999 8.837
    CHANNELS 3 Zrotation Xrotation Yrotation
    JOINT LeftLeg
    {
      OFFSET 39.9035 -0.00124594 0.000252775
      CHANNELS 3 Zrotation Xrotation Yrotation
      JOINT LeftFoot
      {
        OFFSET 39.6689 0 0
        CHANNELS 3 Zrotation Xrotation Yrotation
        JOINT LeftToe
        {
          OFFSET 10.1624 13.6296 0
          CHANNELS 3 Zrotation Xrotation Yrotation
          End Site
          {
            OFFSET 8.38147 0 0
          }
        }
      }
    }
  }
  JOINT RightUpLeg
  {
    OFFSET 0.00499725 -0.535 -8.837
    CHANNELS 3 Zrotation Xrotation Yrotation
    JOINT RightLeg
    {
      OFFSET 39.9036 -0.000268477 0.000106433
      CHANNELS 3 Zrotation Xrotation Yrotation
      JOINT RightFoot
      {
        OFFSET 39.6689 1.17892e-005 0
        CHANNELS 3 Zrotation Xrotation Yrotation
        JOINT RightToe
        {
          OFFSET 10.1624 13.6296 0
          CHANNELS 3 Zrotation Xrotation Yrotation
          End Site
          {
            OFFSET 8.38147 0 0
          }
        }
      }
    }
  }
}
MOTION
Frames:	13
Frame Time:	0.0333333
-26.3939 89.1979 56.2279 74.3456 77.0292 16.2885 1.45691 1.08085 0.466973 2.90575 2.17372 0.906696 2.90574 2.1737 0.906688 -12.4626 6.72814 -7.35618 57.6445 11.4849 -2.03267 -168.167 6.66218 -92.0692 -5.06247 2.73497 83.8562 -22.3282 2.26698 -14.2868 12.7787 -83.1338 15.3882 -168.311 4.41125 76.0574 -10.5392 -5.65589 -79.4564 -27.4106 -3.58094 16.3385 7.10722 85.7139 -6.97569 -8.48369 -2.13524 -162.946 -21.9473 0.271919 -1.13726 -20.3245 -5.19332 -4.18861 90 1.39149e-015 -2.78299e-015 -2.20191 -2.38001 173.346 -31.2643 -0.451419 0.616908 1.95206 19.8289 2.68433 90 -2.22639e-014 -6.36111e-015 
-23.4812 88.832 57.194 76.8239 79.0641 15.7219 1.22867 0.940799 0.169349 2.45506 1.88553 0.318707 2.45505 1.88552 0.318692 -12.2015 6.64448 -7.52566 57.4589 11.6687 -1.67016 -168.435 6.56387 -92.1411 -5.69723 2.35624 84.4219 -22.0893 2.22912 -14.1979 10.9932 -82.1698 13.565 -168.573 4.31028 75.9452 -10.0465 -6.20598 -79.0569 -26.6465 -3.39276 15.9199 7.32532 85.7912 -7.18707 -7.43047 -3.52654 -165.95 -20.8732 0.478201 -1.34542 -18.3677 -2.49945 -2.33822 90 3.97569e-015 -3.97569e-015 -3.88618 -2.56465 169.346 -33.4063 -0.364449 0.567071 1.67778 19.311 2.78223 90 -9.54166e-015 -6.36111e-015 
-20.7605 88.5112 58.3324 75.6092 80.3118 16.9576 1.10786 0.949785 0.286998 2.21142 1.90543 0.555838 2.21141 1.90543 0.555822 -11.6783 6.49405 -7.62352 57.4202 11.5383 -1.55169 -168.994 6.45759 -92.1795 -7.59629 2.58136 85.3181 -22.1523 2.23588 -14.2776 11.7219 -82.4892 14.2879 -169.123 4.23774 75.9351 -9.63893 -7.70271 -78.634 -26.9918 -3.4667 16.0779 7.05635 85.8412 -6.93309 -5.93084 -4.17849 -167.15 -19.1371 0.588909 -1.5031 -14.6215 -1.9054 -1.58013 90 -1.11319e-014 -7.95139e-015 -4.10449 -2.22551 167.586 -34.6998 -0.273735 0.512056 -0.220777 20.0171 3.55539 90 7.95139e-015 -0 
-17.7926 88.3432 59.4023 74.712 81.3931 18.755 1.06206 0.938079 0.222288 2.12092 1.88057 0.427413 2.1209 1.88056 0.427401 -11.6843 6.53665 -7.59642 57.5503 11.5578 -1.751 -168.999 6.52192 -92.1653 -9.63953 2.3225 85.9796 -22.1639 2.23451 -14.3374 13.0817 -83.1642 15.6701 -169.126 4.26699 75.9558 -8.72915 -8.34373 -78.1761 -27.1973 -3.50962 16.1648 5.11095 84.5379 -4.94737 -5.82189 -2.19904 -169.831 -18.5793 0.705358 -1.58206 -11.4002 -1.07165 -0.87616 90 -1.15295e-014 -6.36111e-015 -4.71172 -1.57808 164.896 -36.1763 -0.154372 0.423671 -2.83545 20.2529 4.60728 90 -6.36111e-015 -9.54166e-015 
-14.8597 88.2945 60.2411 71.8289 83.081 23.0544 1.07395 0.807002 0.0344187 2.14774 1.61498 0.0538683 2.14774 1.61497 0.0538481 -11.7079 6.68706 -7.68472 57.469 11.8909 -1.87247 -168.944 6.66896 -92.2774 -12.3318 1.99224 86.1635 -22.1449 2.21408 -14.3643 14.055 -83.7716 16.6665 -169.085 4.35692 75.85 -7.57802 -8.51357 -78.1266 -27.6056 -3.61226 16.3867 3.87034 83.0959 -3.73618 -6.00261 0.41189 -173.376 -18.0086 0.78435 -1.63174 -9.3563 -1.29847 -0.764601 90 -1.78906e-015 7.95139e-016 -5.41971 -0.807796 162.191 -38.0469 -0.00594538 0.315164 -5.66146 21.8697 6.04492 90 -1.27222e-014 -6.36111e-015 
-12.293 88.4023 60.9156 63.3346 84.9919 32.0452 1.15157 0.638806 0.00101474 2.30338 1.27799 -0.0106781 2.30337 1.27798 -0.0106844 -11.8093 6.75309 -7.59604 57.4591 11.6894 -2.33466 -168.821 6.79251 -92.2449 -15.5751 1.77095 85.8179 -22.3804 2.22605 -14.5058 14.6678 -84.254 17.2705 -168.988 4.42959 75.9319 -6.85605 -8.71447 -78.5621 -28.3072 -3.80672 16.7761 4.03512 82.7516 -3.91097 -5.34116 0.810306 -175.687 -16.658 0.833376 -1.69485 -8.08687 -0.434501 -0.359782 90 -1.05356e-014 -6.75868e-015 -5.5409 0.484363 161.705 -39.495 0.121008 0.27514 -7.87972 27.2714 7.99959 90 1.27222e-014 1.27222e-014 
-10.2212 88.6524 61.4964 48.0401 86.5374 46.7724 1.18589 0.527098 0.160724 2.37046 1.0579 0.310657 2.37045 1.05789 0.310643 -11.7633 6.89402 -7.58833 57.6924 11.8329 -2.66318 -168.828 7.00651 -92.3055 -19.1288 1.74435 85.0698 -22.6309 2.23748 -14.6339 15.996 -84.6331 18.5806 -169.016 4.56322 75.8868 -7.75704 -8.69615 -78.8555 -27.816 -3.69206 16.5383 5.25285 84.0673 -5.12022 -5.46752 0.674372 -176.421 -16.6162 0.873027 -1.703 -7.26604 1.36363 0.264388 90 1.25234e-014 1.59028e-015 -5.89824 1.21074 163.087 -40.7983 0.121924 0.281944 -7.42421 30.4511 8.13107 90 3.18055e-015 6.36111e-015 
-8.52282 88.8973 61.9583 19.0425 87.4494 75.3494 1.27686 0.47729 0.227118 2.55197 0.96 0.443728 2.55196 0.960001 0.443715 -11.8648 6.95376 -7.69754 57.9166 12.1532 -2.49262 -168.657 7.09564 -92.4685 -21.3094 1.29053 83.8259 -22.9127 2.2623 -14.7789 14.5915 -84.303 17.0969 -168.897 4.5477 75.7425 -8.31051 -8.18874 -79.6383 -27.6621 -3.63783 16.446 4.70164 84.0225 -4.54781 -5.62101 -0.106075 -177.207 -16.8927 0.90384 -1.69453 -6.78702 2.00328 0.48632 90 -1.94809e-014 -1.74931e-014 -7.33159 1.28033 164.712 -43.092 0.0272341 0.29836 -4.23888 25.8881 5.7287 90 -9.54166e-015 -0 
-7.09381 88.9547 62.321 -15.4513 87.3952 109.206 1.37816 0.483381 0.344684 2.75354 0.97536 0.677819 2.75354 0.975355 0.677806 -12.0204 6.94983 -7.49717 57.9462 11.9445 -2.76927 -168.487 7.18757 -92.3705 -22.3611 0.861938 82.9224 -23.7726 2.40031 -15.2313 16.0773 -84.9029 18.6694 -168.753 4.56287 75.9074 -8.95014 -7.73617 -80.4278 -27.6193 -3.62681 16.4295 3.80061 82.5914 -3.62542 -6.21261 -1.76136 -177.771 -18.1847 0.933628 -1.66287 -5.83381 1.77624 0.480517 90 -1.2921e-015 9.93923e-015 -8.64307 1.37646 167.262 -44.9837 -0.161379 0.345179 1.18985 19.5322 2.49903 90 1.59028e-014 1.90833e-014 
-5.77665 88.8717 62.5485 -39.6102 87.0791 133.347 1.35946 0.508213 0.324215 2.71623 1.02446 0.636456 2.71621 1.02447 0.636451 -12.1804 7.08002 -7.32887 57.9678 12.2082 -2.93549 -168.335 7.36364 -92.3662 -22.4447 0.883541 82.534 -25.185 2.64622 -15.9668 22.7591 -86.4728 25.455 -168.604 4.70861 76.0567 -10.6091 -7.96424 -81.3079 -28.0785 -3.74177 16.691 3.93254 82.948 -3.76066 -7.12125 -2.92162 -178.849 -19.3233 0.965374 -1.61794 -5.05283 1.42183 0.432598 90 -4.96962e-015 6.36111e-015 -10.5289 1.2209 169.398 -46.1371 -0.284105 0.342653 4.67908 11.913 0.48058 90 -1.59028e-014 7.95139e-015 
-4.58069 88.8137 62.8481 -50.1272 86.7229 144.355 1.36048 0.617377 0.157657 2.71948 1.23881 0.30078 2.71947 1.2388 0.300774 -12.1521 7.1565 -6.95943 57.5107 12.3076 -3.17143 -168.393 7.55066 -92.1028 -22.4592 1.10707 82.0244 -26.2545 2.8384 -16.5029 55.2466 -88.2845 57.9603 -168.652 4.87808 76.4252 -12.1486 -7.70446 -82.1324 -28.3309 -3.8091 16.8507 3.96938 83.0938 -3.81221 -7.50428 -3.1838 179.776 -19.969 0.998474 -1.55159 -4.28204 1.42695 0.472253 90 9.83984e-015 2.78299e-015 -12.5736 0.363232 171.175 -47.0028 -0.325183 0.31206 8.8867 3.97836 -1.13322 90 6.36111e-015 5.1684e-015 
-3.67691 88.723 63.0458 -57.9587 86.3112 151.608 1.30934 0.709892 0.189881 2.61664 1.4244 0.363652 2.61664 1.4244 0.363639 -12.086 7.2038 -6.80275 57.3306 12.5371 -3.12149 -168.491 7.65339 -92.0313 -22.0097 1.66825 81.5661 -27.1748 3.00857 -16.9577 127.764 -88.2678 130.546 -168.746 4.95528 76.6136 -13.2354 -7.51729 -83.0383 -28.7971 -3.9287 17.1193 3.6981 82.7835 -3.5515 -8.46252 -3.44251 179.716 -21.6842 1.02651 -1.49273 -3.14284 1.54979 0.562645 90 -9.93923e-015 -1.19271e-015 -14.761 -1.07978 174.302 -47.1872 -0.271499 0.196565 12.1531 -6.37974 -1.72711 90 -3.57812e-015 -7.95139e-015 
-2.74261 88.4915 63.2144 -68.0746 85.9773 161.368 1.2551 0.772102 0.203339 2.50779 1.54896 0.389923 2.50778 1.54896 0.389907 -12.5572 7.37639 -7.01626 57.5939 13.0785 -2.91749 -167.978 7.70797 -92.33 -20.8646 1.55671 81.22 -27.2152 3.02285 -16.9684 140.317 -87.8685 143.134 -168.248 4.99074 76.3331 -13.8235 -6.88238 -83.5207 -28.9157 -3.96474 17.1936 3.46091 82.2183 -3.28281 -9.85276 -3.63914 179.313 -23.7409 1.04687 -1.40365 -1.85108 1.6335 0.640611 90 -1.67973e-014 5.1684e-015 -16.6309 -3.5632 176.951 -46.5172 -0.245273 0.13007 13.1341 -11.1336 -1.53763 90 3.18055e-015 -4.77083e-015 
